<svg width="84" height="30" viewBox="0 0 84 30" fill="none" xmlns="http://www.w3.org/2000/svg">
<path d="M3.80236 18.1661V14.1704H0V12.527H3.80236V8.49902H5.54243V12.527L9.26423 12.527V14.1703L5.54243 14.1704V18.1661H3.80236Z" fill="#FF8D72"/>
<path d="M10.5381 18.9716V7.69336H12.4554V12.3819H17.9011V7.69336H19.8184V18.9716H17.9011V14.0897H12.4554V18.9716H10.5381Z" fill="#EA3C12"/>
<path d="M24.9689 18.9716C24.346 18.9716 23.7874 18.8265 23.2933 18.5365C22.7992 18.2358 22.4072 17.8383 22.1171 17.3443C21.8379 16.8394 21.6982 16.2863 21.6982 15.6848C21.6982 15.2122 21.8056 14.7664 22.0205 14.3475C22.246 13.9179 22.5576 13.558 22.955 13.268C22.5576 12.978 22.2514 12.6289 22.0366 12.2207C21.8217 11.8018 21.7144 11.3668 21.7144 10.9157C21.7144 10.3142 21.854 9.77177 22.1333 9.28842C22.4233 8.80507 22.8099 8.41839 23.2933 8.12838C23.7767 7.83836 24.3137 7.69336 24.9045 7.69336H29.448V9.4012H25.1139C24.8453 9.4012 24.5983 9.47102 24.3728 9.61065C24.1472 9.73955 23.9646 9.91678 23.825 10.1423C23.6961 10.3679 23.6316 10.6257 23.6316 10.9157C23.6316 11.1735 23.7015 11.4152 23.8411 11.6407C23.9807 11.8663 24.1633 12.0489 24.3889 12.1885C24.6145 12.3174 24.8669 12.3819 25.1461 12.3819H28.8841V14.0897H25.2428C24.9206 14.0897 24.636 14.1649 24.3889 14.3153C24.1418 14.4657 23.9485 14.6644 23.8089 14.9114C23.68 15.1477 23.6155 15.4109 23.6155 15.7009C23.6155 15.9802 23.68 16.2433 23.8089 16.4904C23.9485 16.7266 24.1365 16.92 24.3728 17.0704C24.6199 17.21 24.8991 17.2798 25.2106 17.2798H29.448V18.9716H24.9689Z" fill="#EA3C12"/>
<path d="M37.2951 22.4839C36.7258 22.4839 36.2264 22.3765 35.7967 22.1617C35.3671 21.9576 35.0395 21.6515 34.8139 21.2433C34.5884 20.8459 34.4756 20.3679 34.4756 19.8094C34.4756 19.3045 34.5723 18.746 34.7656 18.1337C34.9697 17.5215 35.3349 16.8931 35.8612 16.2487C36.3875 15.6042 37.134 14.9866 38.1007 14.3958V9.38509H35.7645V7.69336H40.018V19.5194C40.018 20.0887 39.9106 20.5988 39.6958 21.05C39.4917 21.5011 39.1856 21.8502 38.7774 22.0972C38.38 22.355 37.8859 22.4839 37.2951 22.4839ZM37.1662 20.76C37.3489 20.76 37.51 20.7116 37.6496 20.6149C37.7892 20.5183 37.8967 20.3787 37.9718 20.196C38.047 20.0242 38.0846 19.8148 38.0846 19.5677V16.3615C37.4939 16.8341 37.0696 17.2852 36.8118 17.7148C36.554 18.1445 36.3983 18.5258 36.3445 18.8588C36.2908 19.181 36.264 19.4281 36.264 19.5999C36.264 19.9759 36.3553 20.2605 36.5379 20.4538C36.7205 20.6579 36.93 20.76 37.1662 20.76Z" fill="#EA3C12"/>
<path d="M46.8794 19.1649C45.9879 19.1649 45.1984 18.9823 44.511 18.6171C43.8236 18.2411 43.2811 17.7094 42.8837 17.022C42.4971 16.3346 42.3037 15.5129 42.3037 14.5569V7.69336H44.221V14.7181C44.221 15.2122 44.3284 15.6687 44.5432 16.0876C44.7688 16.5065 45.0803 16.8448 45.4777 17.1026C45.8751 17.3497 46.3478 17.4732 46.8955 17.4732C47.4433 17.4732 47.9106 17.3497 48.2973 17.1026C48.6947 16.8448 49.0008 16.5065 49.2156 16.0876C49.4305 15.6687 49.5379 15.2122 49.5379 14.7181V7.69336H51.4713V14.5569C51.4713 15.5129 51.2726 16.3346 50.8751 17.022C50.4777 17.7094 49.9353 18.2411 49.2479 18.6171C48.5605 18.9823 47.771 19.1649 46.8794 19.1649Z" fill="#EA3C12"/>
<path d="M56.7726 18.9716C56.139 18.9716 55.5804 18.8319 55.097 18.5527C54.6245 18.2626 54.2539 17.876 53.9853 17.3926C53.7275 16.9093 53.5986 16.3722 53.5986 15.7814V7.69336H55.532V16.0231C55.532 16.3669 55.6448 16.6622 55.8704 16.9093C56.1067 17.1563 56.4075 17.2798 56.7726 17.2798H59.7694V18.9716H56.7726Z" fill="#EA3C12"/>
<path d="M69.5279 22.5C68.9479 22.5 68.4377 22.3926 67.9973 22.1778C67.5677 21.9629 67.2347 21.6461 66.9984 21.2272C66.7728 20.819 66.6601 20.3303 66.6601 19.761C66.6601 19.6214 66.6655 19.4764 66.6762 19.326C66.6869 19.1864 66.703 19.0414 66.7245 18.891C65.8438 18.9232 65.0382 18.7997 64.3078 18.5204C63.5773 18.2411 62.9437 17.8437 62.4066 17.3281C61.8803 16.8126 61.4721 16.2057 61.1821 15.5075C60.8921 14.7986 60.7471 14.0306 60.7471 13.2035C60.7471 12.4194 60.8814 11.6837 61.1499 10.9962C61.4184 10.3088 61.805 9.70193 62.3099 9.17562C62.8148 8.6493 63.4216 8.24114 64.1305 7.95113C64.8394 7.65038 65.6289 7.5 66.4989 7.5C67.3797 7.5 68.1746 7.64501 68.8835 7.93502C69.5924 8.21429 70.1992 8.61171 70.7041 9.12728C71.209 9.64286 71.5956 10.239 71.8641 10.9157C72.1326 11.5816 72.2669 12.3013 72.2669 13.0747V19.5193C72.2669 20.0886 72.1596 20.5988 71.9447 21.0499C71.7406 21.5011 71.4345 21.8555 71.0263 22.1133C70.6181 22.3711 70.1187 22.5 69.5279 22.5ZM69.3991 20.776C69.6891 20.776 69.9146 20.6687 70.0757 20.4538C70.2476 20.239 70.3335 19.9436 70.3335 19.5677V16.2164C69.8824 16.5602 69.5279 16.8985 69.2702 17.2315C69.0124 17.5644 68.8244 17.8813 68.7062 18.1821C68.5989 18.4828 68.529 18.7514 68.4968 18.9876C68.4753 19.2239 68.4646 19.4119 68.4646 19.5516C68.4646 19.8093 68.5075 20.0295 68.5935 20.2121C68.6794 20.3948 68.7922 20.5344 68.9318 20.631C69.0822 20.7277 69.2379 20.776 69.3991 20.776ZM66.4989 17.2154C66.6708 17.2154 66.8266 17.21 66.9662 17.1992C67.1058 17.1777 67.2562 17.1509 67.4173 17.1187C67.5891 16.7965 67.804 16.4688 68.0618 16.1359C68.3196 15.8029 68.6364 15.4807 69.0124 15.1692C69.3883 14.8469 69.8287 14.5408 70.3335 14.2508V13.0747C70.3335 12.5269 70.2369 12.0167 70.0435 11.544C69.8609 11.0714 69.5924 10.6633 69.2379 10.3195C68.8942 9.96509 68.4914 9.69119 68.0296 9.49785C67.5677 9.29377 67.0575 9.19173 66.4989 9.19173C65.9511 9.19173 65.441 9.29377 64.9683 9.49785C64.5065 9.70193 64.1037 9.98658 63.76 10.3518C63.4162 10.7062 63.1477 11.1305 62.9544 11.6246C62.761 12.1079 62.6644 12.6343 62.6644 13.2035C62.6644 13.7728 62.761 14.3045 62.9544 14.7986C63.1477 15.282 63.4162 15.7063 63.76 16.0714C64.1037 16.4259 64.5065 16.7052 64.9683 16.9092C65.441 17.1133 65.9511 17.2154 66.4989 17.2154Z" fill="#EA3C12"/>
<path d="M77.1584 18.9716C76.5354 18.9716 75.9769 18.8265 75.4828 18.5365C74.9887 18.2358 74.5967 17.8383 74.3067 17.3443C74.0274 16.8394 73.8877 16.2863 73.8877 15.6848C73.8877 15.2122 73.9952 14.7664 74.2099 14.3475C74.4355 13.9179 74.747 13.558 75.1444 13.268C74.747 12.978 74.4409 12.6289 74.226 12.2207C74.0113 11.8018 73.9039 11.3668 73.9039 10.9157C73.9039 10.3142 74.0435 9.77177 74.3227 9.28842C74.6127 8.80507 74.9994 8.41839 75.4828 8.12838C75.9661 7.83836 76.5032 7.69336 77.0939 7.69336H81.6376V9.4012H77.3035C77.0349 9.4012 76.7878 9.47102 76.5622 9.61065C76.3367 9.73955 76.1541 9.91678 76.0144 10.1423C75.8855 10.3679 75.8211 10.6257 75.8211 10.9157C75.8211 11.1735 75.8909 11.4152 76.0306 11.6407C76.1702 11.8663 76.3528 12.0489 76.5783 12.1885C76.8039 12.3174 77.0564 12.3819 77.3356 12.3819H81.0737V14.0897H77.4323C77.11 14.0897 76.8254 14.1649 76.5783 14.3153C76.3314 14.4657 76.138 14.6644 75.9983 14.9114C75.8694 15.1477 75.8051 15.4109 75.8051 15.7009C75.8051 15.9802 75.8694 16.2433 75.9983 16.4904C76.138 16.7266 76.326 16.92 76.5622 17.0704C76.8093 17.21 77.0886 17.2798 77.4 17.2798H81.6376V18.9716H77.1584Z" fill="#EA3C12"/>
</svg>
