<svg width="25" height="26" viewBox="0 0 25 26" fill="none" xmlns="http://www.w3.org/2000/svg">
<path d="M21.0938 2.27832H3.90625C2.61182 2.27832 1.5625 3.32764 1.5625 4.62207V21.8096C1.5625 23.104 2.61182 24.1533 3.90625 24.1533H21.0938C22.3882 24.1533 23.4375 23.104 23.4375 21.8096V4.62207C23.4375 3.32764 22.3882 2.27832 21.0938 2.27832ZM10.2596 13.5139C5.83149 10.3001 5.87661 10.292 4.6875 9.36655V8.1377C4.6875 7.49048 5.21216 6.96582 5.85938 6.96582H19.1406C19.7878 6.96582 20.3125 7.49048 20.3125 8.1377V9.36655C19.1225 10.2928 19.1683 10.3003 14.7404 13.5139C14.2277 13.8877 13.2076 14.7893 12.5 14.7783C11.7918 14.7889 10.7731 13.8883 10.2596 13.5139ZM20.3125 11.3494V18.2939C20.3125 18.9412 19.7878 19.4658 19.1406 19.4658H5.85938C5.21216 19.4658 4.6875 18.9412 4.6875 18.2939V11.3494C5.36904 11.8764 6.31489 12.5816 9.34097 14.7778C10.0325 15.2827 11.1952 16.3474 12.4999 16.3408C13.8127 16.3473 14.9919 15.2646 15.66 14.7771C18.6853 12.5815 19.631 11.8764 20.3125 11.3494Z" fill="#A4A1AA"/>
</svg>
