<svg width="25" height="26" viewBox="0 0 25 26" fill="none" xmlns="http://www.w3.org/2000/svg">
<path d="M21.0938 2.27832H3.90625C3.28465 2.27832 2.68851 2.52525 2.24897 2.96479C1.80943 3.40433 1.5625 4.00047 1.5625 4.62207L1.5625 21.8096C1.5625 22.4312 1.80943 23.0273 2.24897 23.4669C2.68851 23.9064 3.28465 24.1533 3.90625 24.1533H10.6079V16.7163H7.53174V13.2158H10.6079V10.5479C10.6079 7.51318 12.4146 5.83691 15.1816 5.83691C16.5068 5.83691 17.8926 6.07324 17.8926 6.07324V9.05176H16.3657C14.8613 9.05176 14.3921 9.98535 14.3921 10.9429V13.2158H17.7505L17.2134 16.7163H14.3921V24.1533H21.0938C21.7154 24.1533 22.3115 23.9064 22.751 23.4669C23.1906 23.0273 23.4375 22.4312 23.4375 21.8096V4.62207C23.4375 4.00047 23.1906 3.40433 22.751 2.96479C22.3115 2.52525 21.7154 2.27832 21.0938 2.27832Z" fill="#A4A1AA"/>
</svg>
