<svg width="25" height="26" viewBox="0 0 25 26" fill="none" xmlns="http://www.w3.org/2000/svg">
<path d="M12.5046 7.60034C9.39917 7.60034 6.89429 10.1052 6.89429 13.2107C6.89429 16.3162 9.39917 18.821 12.5046 18.821C15.6101 18.821 18.115 16.3162 18.115 13.2107C18.115 10.1052 15.6101 7.60034 12.5046 7.60034ZM12.5046 16.8582C10.4978 16.8582 8.85718 15.2224 8.85718 13.2107C8.85718 11.199 10.4929 9.56323 12.5046 9.56323C14.5164 9.56323 16.1521 11.199 16.1521 13.2107C16.1521 15.2224 14.5115 16.8582 12.5046 16.8582ZM19.6531 7.37085C19.6531 8.09839 19.0671 8.67944 18.3445 8.67944C17.6169 8.67944 17.0359 8.09351 17.0359 7.37085C17.0359 6.64819 17.6218 6.06226 18.3445 6.06226C19.0671 6.06226 19.6531 6.64819 19.6531 7.37085ZM23.3689 8.69897C23.2859 6.94604 22.8855 5.39331 21.6013 4.11401C20.322 2.83472 18.7693 2.43433 17.0164 2.34644C15.2097 2.2439 9.79468 2.2439 7.98804 2.34644C6.23999 2.42944 4.68726 2.82983 3.40308 4.10913C2.1189 5.38843 1.72339 6.94116 1.6355 8.69409C1.53296 10.5007 1.53296 15.9158 1.6355 17.7224C1.71851 19.4753 2.1189 21.0281 3.40308 22.3074C4.68726 23.5867 6.23511 23.9871 7.98804 24.075C9.79468 24.1775 15.2097 24.1775 17.0164 24.075C18.7693 23.9919 20.322 23.5916 21.6013 22.3074C22.8806 21.0281 23.281 19.4753 23.3689 17.7224C23.4714 15.9158 23.4714 10.5056 23.3689 8.69897ZM21.0349 19.6609C20.6541 20.6179 19.9167 21.3552 18.9548 21.741C17.5144 22.3123 14.0964 22.1804 12.5046 22.1804C10.9128 22.1804 7.48999 22.3074 6.05444 21.741C5.09741 21.3601 4.36011 20.6228 3.97437 19.6609C3.40308 18.2205 3.53491 14.8025 3.53491 13.2107C3.53491 11.6189 3.40796 8.19604 3.97437 6.7605C4.35522 5.80347 5.09253 5.06616 6.05444 4.68042C7.49487 4.10913 10.9128 4.24097 12.5046 4.24097C14.0964 4.24097 17.5193 4.11401 18.9548 4.68042C19.9119 5.06128 20.6492 5.79858 21.0349 6.7605C21.6062 8.20093 21.4744 11.6189 21.4744 13.2107C21.4744 14.8025 21.6062 18.2253 21.0349 19.6609Z" fill="#A4A1AA"/>
</svg>
